<?xml version="1.0" encoding="utf-8"?>
<!-- Generator: Adobe Illustrator 25.1.0, SVG Export Plug-In . SVG Version: 6.00 Build 0)  -->
<svg version="1.1" id="Layer_1" xmlns="http://www.w3.org/2000/svg" xmlns:xlink="http://www.w3.org/1999/xlink"  width="200" height="80"
	 viewBox="0 0 523.7 127.1" style="enable-background:new 0 0 523.7 127.1;" xml:space="preserve">
<style type="text/css">
	.st0{fill:#28317D;}
	.st1{fill:#ED721F;}
	.st2{fill:#E62530;}
</style>
<g id="Layer_x0020_1">
	<g id="_998875397664">
		<g>
			<path class="st0" d="M219,41.1h14.8c5.6,0,12.7-1.3,12.7-8.4c-0.1-6.9-6.3-9.4-12.3-9.4H219L219,41.1L219,41.1z M219,20.1h15.2
				c5.3,0,10.9-1.6,10.9-8c0-6.5-5.8-9.2-11.3-9.2H219V20.1z M248.4,12.1c0,4.6-2.8,8.1-7.2,9.5c5.6,1.5,8.8,6,8.8,11.2
				c0,9.1-8.5,11.6-16.1,11.6h-18.2V0h18.2C241.2,0,248.4,3.7,248.4,12.1z"/>
			<path class="st0" d="M258.5,28.7c0,7.9,5.7,13.1,12.8,13.1c17.4,0,17.4-26.2,0-26.2C264.3,15.6,258.5,20.8,258.5,28.7z M287.3,13
				v31.3h-3.1v-6.6c-3.1,4.9-7.7,7.1-12.8,7.1c-8.8,0-15.9-6.6-15.9-16.2s7.1-16,15.9-16c5.1,0,10.2,2.4,12.8,7.2v-6.9h3.1V13z"/>
			<path class="st0" d="M298.4,13v5.6c2.4-4.3,6.8-6.1,11.1-6.2c8.4,0,14.1,5.2,14.1,13.8v18.1h-3.1v-18c0-7.1-4.4-10.9-11.1-10.9
				c-6.5,0.1-11,5-11,11.4v17.4h-3.1V13H298.4z"/>
			<polygon class="st0" points="334.5,0 334.5,26.8 349.3,13 353.4,13 353.4,13.2 337.6,27.8 355.3,44.2 355.3,44.4 351.3,44.4 
				334.5,29 334.5,44.4 331.5,44.4 331.5,0 			"/>
		</g>
		<g>
			<path class="st0" d="M474.1,105.2V86.9c0-5.3-2.9-9.4-8.4-9.4c-5.3,0-8.9,4.5-8.9,9.8v17.9h-8.6v-35h7.7l0.6,4.8
				c3.5-3.5,7.1-5.2,11.5-5.2c8.2,0,14.8,6.2,14.8,17.1v18.4h-8.7V105.2z"/>
			<path class="st0" d="M496.7,86.8c0,6.1,4.1,9.8,9.2,9.8c5,0,9.1-3.7,9.1-9.8c0-6-4.1-9.8-9.1-9.8C500.8,77,496.7,80.7,496.7,86.8
				z M517.3,66.7l6.4,4.8l-3.9,5c2.7,3.1,3.7,6.5,3.7,10.3c0,4.3-1.6,10.4-7.4,13.1c5.8,2.9,7.3,7.1,7.3,11.6
				c0,9.7-7.4,15.6-17.5,15.6s-17.7-6.2-17.7-15.6h8.6c0,4.5,4.2,7.5,9.2,7.5s8.9-2.7,8.9-7.5s-4.5-7-8.9-7
				c-10.9,0-17.7-6.7-17.7-17.6s8-17.7,17.7-17.7c2.8,0,5.6,0.3,8,2L517.3,66.7z"/>
			<polygon class="st0" points="224.9,55.6 224.9,96.6 250.5,96.6 250.5,105.2 215.6,105.2 215.6,55.6 			"/>
			<path class="st0" d="M264.2,87.7c0,6.7,4.6,10.7,10.3,10.7c13.6,0,13.6-21.2,0-21.2C268.9,77.1,264.2,81,264.2,87.7z M285.2,70.2
				h8.3v35h-8.2l-0.4-5.1c-2,4.1-7.5,6.1-11.4,6.2c-10.3,0.1-18-6.3-18-18.6c0-12,8-18.3,18.2-18.3c4.7,0,9.2,2.2,11.1,5.7
				L285.2,70.2z"/>
			<path class="st0" d="M323.8,105.2V86.5c0-4.6-2.4-8.8-7.2-8.8c-4.7,0-7.5,4.2-7.5,8.8v18.7h-8.6v-35h8l0.6,4.3
				c1.8-3.6,5.9-4.8,9.2-4.8c4.2,0,8.4,1.7,10.3,6.5c3.1-5,7.2-6.4,11.7-6.4c9.9,0,14.8,6.1,14.8,16.6v18.9h-8.6v-19
				c0-4.6-1.9-8.5-6.6-8.5s-7.6,4-7.6,8.6v18.7L323.8,105.2L323.8,105.2z"/>
			<path class="st0" d="M392.3,87.8c0-5.5-3.7-9.9-9.9-9.9c-6.3,0-9.9,4.5-9.9,9.9c0,5.5,4.1,9.9,9.9,9.9S392.3,93.2,392.3,87.8z
				 M363,119.8V70.2h8.1l0.6,4.8c2.7-3.9,7.4-5.6,11.3-5.6c10.8,0,18,8,18,18.3c0,10.2-6.5,18.3-17.7,18.3c-3.7,0-9.2-1.1-11.6-5
				v18.7L363,119.8L363,119.8z"/>
			<path class="st0" d="M415.1,70.2v18.3c0,5.3,2.9,9.4,8.4,9.4c5.3,0,8.9-4.5,8.9-9.8V70.2h8.6v35h-7.7l-0.6-4.7
				c-3.6,3.5-6.9,5.2-11.8,5.2c-8.4,0-14.5-6.3-14.5-17.2V70.2H415.1z"/>
		</g>
		<g>
			<polygon class="st1" points="42,14.7 33.6,16.9 38.1,33.7 46.5,31.5 			"/>
			<polygon class="st1" points="122.8,64.9 114.5,67.2 122.3,96.5 124.5,104.9 132.9,102.7 187.4,88 185.2,79.7 130.7,94.3 			"/>
			<polygon class="st1" points="149.3,12.9 140.9,15.1 145.4,31.9 153.8,29.6 			"/>
			<polygon class="st0" points="134.8,25.8 132.5,17.4 15.2,48.8 8.4,23.7 0,25.9 6.8,51.1 9,59.5 17.4,57.2 			"/>
			<polygon class="st2" points="146,67.7 140.4,46.7 138.2,38.3 129.8,40.6 12.4,72.1 4,74.3 6.3,82.7 9.6,95.2 11.9,103.6 
				20.3,101.4 104.1,78.9 101.9,70.6 18,93 14.6,80.4 132,49 137.6,69.9 139.9,78.3 148.3,76.1 181.8,67.1 179.6,58.7 			"/>
		</g>
	</g>
</g>
</svg>
